<?xml version="1.0" encoding="utf-8"?>
<!-- Generator: Adobe Illustrator 28.1.0, SVG Export Plug-In . SVG Version: 6.00 Build 0)  -->
<svg version="1.1" id="Layer_1" xmlns="http://www.w3.org/2000/svg" xmlns:xlink="http://www.w3.org/1999/xlink" x="0px" y="0px"
	 viewBox="0 0 194.5 45.3" style="enable-background:new 0 0 194.5 45.3;" xml:space="preserve">
<style type="text/css">
	.st0{enable-background:new    ;}
	.st1{fill:#FF0101;}
</style>
<g>
	<g class="st0">
		<path class="st1" d="M12.1,6h9.5l12.1,29H23.3l-1.5-3.9H11.8l-1.5,3.9H0L12.1,6z M19.4,24.2l-2.6-7l-2.6,7H19.4z"/>
		<path class="st1" d="M35,6.2H59v8.2H44.6V18H58v7.5H44.6v9.4H35V6.2z"/>
		<path class="st1" d="M61,4.9h9.7v6H61V4.9z M61.1,12.5h9.3v22.4h-9.3V12.5z"/>
		<path class="st1" d="M73.4,12.5h9.3v3c1.8-2.3,4.1-3.5,6.8-3.5c3.1,0,5.3,1.2,6.6,3.7c2.2-2.5,4.7-3.7,7.6-3.7
			c2.4,0,4.3,0.7,5.7,2.2c1.4,1.5,2.1,3.5,2.1,6v14.8h-9.3V23.1c0-0.9-0.2-1.6-0.7-2.2c-0.5-0.5-1-0.8-1.7-0.8
			c-0.7,0-1.3,0.2-1.8,0.8c-0.5,0.5-0.8,1.3-0.8,2.2v11.9h-9.3V23.1c0-0.9-0.2-1.6-0.7-2.2c-0.5-0.5-1-0.8-1.7-0.8
			c-0.7,0-1.3,0.2-1.8,0.8c-0.5,0.5-0.8,1.3-0.8,2.2v11.9h-9.3V12.5z"/>
		<path class="st1" d="M114.3,6.2h9.6v10.2h8.8V6.2h9.6v28.8h-9.6V24.6h-8.8v10.3h-9.6V6.2z"/>
		<path class="st1" d="M144.5,28.6L144.5,28.6c0-2.3,0.8-4,2.3-5.3c1.5-1.2,3.6-1.8,6.2-1.8c2.2,0,4,0.3,5.3,0.8v-0.4
			c0-2.2-1.4-3.2-4.2-3.2c-2,0-4.1,0.4-6.2,1.3l-1.6-6.2c2.9-1.1,6-1.6,9.5-1.6c4.4,0,7.6,1,9.5,2.9c1.6,1.6,2.3,3.9,2.3,7.1v12.8
			h-9.3v-2.3c-1.7,1.8-3.9,2.8-6.5,2.8c-2.2,0-4-0.6-5.3-1.8C145.2,32.4,144.5,30.7,144.5,28.6z M158.5,26.6v-0.9
			c-0.6-0.2-1.4-0.4-2.1-0.4c-1.9,0-2.9,0.8-2.9,2.5v0.1c0,0.7,0.2,1.2,0.6,1.6c0.4,0.4,0.9,0.6,1.5,0.6c0.9,0,1.5-0.3,2.1-0.9
			C158.2,28.5,158.5,27.7,158.5,26.6z"/>
		<path class="st1" d="M184.9,12.5h9.5l-7.8,20.9c-1.1,3-2.4,5.1-3.7,6.3c-1.5,1.3-3.5,1.9-6,1.9c-3,0-5.9-0.8-8.7-2.3l2.7-6.4
			c1.8,1,3.1,1.5,4.1,1.5c0.6,0,1.1-0.1,1.5-0.3l-8.8-21.6h9.7l3.9,11.8L184.9,12.5z"/>
	</g>
</g>
</svg>
