<?xml version="1.0" encoding="utf-8"?>
<!-- Generator: Adobe Illustrator 28.1.0, SVG Export Plug-In . SVG Version: 6.00 Build 0)  -->
<svg version="1.1" id="Layer_1" xmlns="http://www.w3.org/2000/svg" xmlns:xlink="http://www.w3.org/1999/xlink" x="0px" y="0px"
	 viewBox="0 0 62.9 65.7" style="enable-background:new 0 0 62.9 65.7;" xml:space="preserve">
<style type="text/css">
	.st0{fill:#AE0710;}
	.st1{fill:#E40A13;}
	.st2{fill-rule:evenodd;clip-rule:evenodd;fill:url(#SVGID_1_);}
</style>
<path d="M42.5,65.7h-22C9.2,65.7,0,56.5,0,45.2V20.5C0,9.2,9.2,0,20.5,0h22c11.3,0,20.5,9.2,20.5,20.5v24.7
	C62.9,56.5,53.8,65.7,42.5,65.7z"/>
<g>
	<polygon class="st0" points="11.4,50.6 20.4,50.6 24,41.8 24,41.8 27.1,34.2 32.3,21.5 36.3,11.6 36.1,11.1 28.2,11.1 	"/>
	<g>
		<g>
			<polygon class="st1" points="53.6,50.6 44.6,50.6 41,41.8 40.9,41.8 37.8,34.2 32.7,21.5 28.2,11.1 28.8,11.1 36.8,11.1 			"/>
		</g>
	</g>
</g>
<linearGradient id="SVGID_1_" gradientUnits="userSpaceOnUse" x1="16.5894" y1="34.0865" x2="43.7337" y2="34.0865">
	<stop  offset="0" style="stop-color:#AE0710"/>
	<stop  offset="1" style="stop-color:#E40A13"/>
</linearGradient>
<polygon class="st2" points="43.7,29.9 20.2,29.9 16.6,38.3 43.7,38.3 "/>
</svg>
